<svg xmlns="http://www.w3.org/2000/svg" x="0px" y="0px" viewBox="15.63599967956543 16.75200080871582 32.72755241394043 30.495996475219727" enable-background="new 0 0 64 64">
<g>
	
		<path fill="transparent" stroke="#000000" stroke-width="1" stroke-linecap="round" stroke-linejoin="round" stroke-miterlimit="10" d="   M42.906,37.433h-3.423c-0.88,0-1.593,0.713-1.593,1.593v1.744c0,3.301-2.676,5.978-5.978,5.978h0c-0.985,0-1.784-0.799-1.784-1.784   V41.57c0-2.614-1.193-5.085-3.239-6.711h0V19.606c0-0.443,0.359-0.801,0.801-0.801h13.763c2.423,0,4.49,1.752,4.889,4.141   l1.453,8.716C48.298,34.683,45.969,37.433,42.906,37.433z"/>
	
		<line fill="none" stroke="#000000" stroke-width="1" stroke-linecap="round" stroke-linejoin="round" stroke-miterlimit="10" x1="42.456" y1="31.409" x2="47.052" y2="31.409"/>
	
		<line fill="none" stroke="#000000" stroke-width="1" stroke-linecap="round" stroke-linejoin="round" stroke-miterlimit="10" x1="42.456" y1="24.409" x2="46.586" y2="24.409"/>
	
		<line fill="none" stroke="#000000" stroke-width="1" stroke-linecap="round" stroke-linejoin="round" stroke-miterlimit="10" x1="34.741" y1="37.433" x2="39.338" y2="37.433"/>
</g>
<g>
	
		<path fill="transparent" stroke="#000000" stroke-width="1" stroke-linecap="round" stroke-linejoin="round" stroke-miterlimit="10" d="   M24.345,17.252H18.68c-1.405,0-2.544,1.139-2.544,2.544V34.89c0,1.405,1.139,2.544,2.544,2.544h5.665   c1.405,0,2.544-1.139,2.544-2.544V19.796C26.889,18.391,25.75,17.252,24.345,17.252z"/>
</g>
<g>
	
		<line fill="none" stroke="#000000" stroke-width="1" stroke-linecap="round" stroke-linejoin="round" stroke-miterlimit="10" x1="21.513" y1="31.409" x2="21.513" y2="27.909"/>
</g>
</svg>