                  <svg
                    xmlns="http://www.w3.org/2000/svg"
                    x="0px"
                    y="0px"
                    viewBox="15.63599967956543 12.859000205993652 32.72755241394043 38.28199768066406"
                    enable-background="new 0 0 64 64"
                  >
                    <g>
                      <g></g>

                      <path
                      fill="transparent"
                        stroke="#000000"
                        stroke-width="1"
                        stroke-linecap="round"
                        stroke-linejoin="round"
                        stroke-miterlimit="10"
                        d="   M24.345,50.641H18.68c-1.405,0-2.544-1.139-2.544-2.544V33.004c0-1.405,1.139-2.544,2.544-2.544h5.665   c1.405,0,2.544,1.139,2.544,2.544v15.093C26.889,49.502,25.75,50.641,24.345,50.641z"
                      />
                    </g>
                    <g>
                      <path
                      fill="transparent"
                        stroke="#000000"
                        stroke-width="1"
                        stroke-linecap="round"
                        stroke-linejoin="round"
                        stroke-miterlimit="10"
                        d="   M42.906,30.46h-3.423c-0.88,0-1.593-0.713-1.593-1.593v-1.744c0-3.301-2.676-5.978-5.978-5.978h0c-0.985,0-1.784,0.799-1.784,1.784   v3.393c0,2.614-1.193,5.085-3.239,6.711l0,0v16.055h14.564c2.423,0,4.49-1.752,4.889-4.141l1.453-8.716   C48.298,33.21,45.969,30.46,42.906,30.46z"
                      />
                    </g>
                    <g>
                      <line
                        fill="none"
                        stroke="#000000"
                        stroke-width="1"
                        stroke-linecap="round"
                        stroke-linejoin="round"
                        stroke-miterlimit="10"
                        x1="31.68"
                        y1="16.464"
                        x2="31.68"
                        y2="13.359"
                      />

                      <line
                        fill="none"
                        stroke="#000000"
                        stroke-width="1"
                        stroke-linecap="round"
                        stroke-linejoin="round"
                        stroke-miterlimit="10"
                        x1="42.77"
                        y1="22.516"
                        x2="44.965"
                        y2="20.32"
                      />

                      <line
                        fill="none"
                        stroke="#000000"
                        stroke-width="1"
                        stroke-linecap="round"
                        stroke-linejoin="round"
                        stroke-miterlimit="10"
                        x1="20.61"
                        y1="22.698"
                        x2="18.415"
                        y2="20.503"
                      />
                    </g>
                  </svg>